<svg width="811" height="129" viewBox="0 0 811 129" fill="none" xmlns="http://www.w3.org/2000/svg">
<path d="M76.1177 80.118C62.7404 93.4953 49.0812 104.031 37.8223 110.257C32.1898 113.371 27.1838 115.392 23.1299 116.162C19.0562 116.936 16.0757 116.426 14.3248 114.675C12.5739 112.924 12.0638 109.944 12.8378 105.87C13.608 101.816 15.6289 96.8099 18.7432 91.1774C24.9683 79.9185 35.5044 66.2594 48.8818 52.882C62.2591 39.5047 75.9182 28.9686 87.1771 22.7434C92.8096 19.6291 97.8157 17.6082 101.87 16.838C105.943 16.064 108.924 16.5742 110.675 18.3251C112.426 20.076 112.936 23.0564 112.162 27.1302C111.391 31.184 109.371 36.1901 106.256 41.8226C100.031 53.0815 89.495 66.7406 76.1177 80.118Z" stroke="#BE0000"/>
<path d="M76.1179 52.8821C89.4952 66.2594 100.031 79.9186 106.257 91.1775C109.371 96.81 111.392 101.816 112.162 105.87C112.936 109.944 112.426 112.924 110.675 114.675C108.924 116.426 105.943 116.936 101.87 116.162C97.8159 115.392 92.8098 113.371 87.1773 110.257C75.9184 104.032 62.2593 93.4954 48.882 80.118C35.5047 66.7407 24.9685 53.0816 18.7434 41.8227C15.6291 36.1902 13.6082 31.1841 12.838 27.1302C12.064 23.0565 12.5742 20.076 14.3251 18.3251C16.076 16.5742 19.0564 16.0641 23.1301 16.8381C27.184 17.6083 32.1901 19.6292 37.8226 22.7435C49.0815 28.9686 62.7406 39.5048 76.1179 52.8821Z" stroke="#BE0000"/>
<path d="M762.118 80.118C748.74 93.4953 735.081 104.031 723.822 110.257C718.19 113.371 713.184 115.392 709.13 116.162C705.056 116.936 702.076 116.426 700.325 114.675C698.574 112.924 698.064 109.944 698.838 105.87C699.608 101.816 701.629 96.8099 704.743 91.1774C710.968 79.9185 721.504 66.2594 734.882 52.882C748.259 39.5047 761.918 28.9686 773.177 22.7434C778.81 19.6291 783.816 17.6082 787.87 16.838C791.943 16.064 794.924 16.5742 796.675 18.3251C798.426 20.076 798.936 23.0564 798.162 27.1302C797.391 31.184 795.371 36.1901 792.256 41.8226C786.031 53.0815 775.495 66.7406 762.118 80.118Z" stroke="#BE0000"/>
<path d="M762.118 52.8821C775.495 66.2594 786.031 79.9186 792.257 91.1775C795.371 96.81 797.392 101.816 798.162 105.87C798.936 109.944 798.426 112.924 796.675 114.675C794.924 116.426 791.943 116.936 787.87 116.162C783.816 115.392 778.81 113.371 773.177 110.257C761.918 104.032 748.259 93.4954 734.882 80.118C721.505 66.7407 710.969 53.0816 704.743 41.8227C701.629 36.1902 699.608 31.1841 698.838 27.1302C698.064 23.0565 698.574 20.076 700.325 18.3251C702.076 16.5742 705.056 16.0641 709.13 16.8381C713.184 17.6083 718.19 19.6292 723.823 22.7435C735.081 28.9686 748.741 39.5048 762.118 52.8821Z" stroke="#BE0000"/>
<ellipse cx="400.659" cy="62.4749" rx="10.4962" ry="10.4654" fill="white"/>
<path d="M462.5 62.3164C462.5 96.4553 434.743 124.133 400.5 124.133C366.257 124.133 338.5 96.4553 338.5 62.3164C338.5 28.1775 366.257 0.5 400.5 0.5C434.743 0.5 462.5 28.1775 462.5 62.3164Z" stroke="#BE0000"/>
<path d="M429.739 62.3164C429.739 79.4673 426.438 94.9701 421.123 106.166C415.791 117.401 408.522 124.133 400.659 124.133C392.796 124.133 385.527 117.401 380.194 106.166C374.879 94.9701 371.579 79.4673 371.579 62.3164C371.579 45.1655 374.879 29.6628 380.194 18.4665C385.527 7.23234 392.796 0.5 400.659 0.5C408.522 0.5 415.791 7.23234 421.123 18.4665C426.438 29.6628 429.739 45.1655 429.739 62.3164Z" stroke="#BE0000"/>
<path d="M408.445 62.5C408.445 79.745 407.575 95.3484 406.172 106.632C405.469 112.278 404.636 116.823 403.717 119.947C403.256 121.513 402.783 122.693 402.31 123.47C401.816 124.283 401.421 124.5 401.17 124.5C400.919 124.5 400.525 124.283 400.031 123.47C399.558 122.693 399.084 121.513 398.624 119.947C397.705 116.823 396.871 112.278 396.169 106.632C394.765 95.3484 393.896 79.745 393.896 62.5C393.896 45.255 394.765 29.6516 396.169 18.3675C396.871 12.722 397.705 8.17677 398.624 5.05264C399.084 3.48682 399.558 2.30726 400.031 1.52951C400.525 0.71683 400.919 0.5 401.17 0.5C401.421 0.5 401.816 0.71683 402.31 1.52951C402.783 2.30726 403.256 3.48682 403.717 5.05264C404.636 8.17677 405.469 12.722 406.172 18.3675C407.575 29.6516 408.445 45.255 408.445 62.5Z" stroke="#BE0000"/>
<path d="M453.15 62.5C453.15 96.8179 429.372 124.5 400.198 124.5C371.024 124.5 347.247 96.8179 347.247 62.5C347.247 28.1821 371.024 0.5 400.198 0.5C429.372 0.5 453.15 28.1821 453.15 62.5Z" stroke="#BE0000"/>
<path d="M415.422 49.9035C415.566 52.6398 415.663 55.4411 415.712 58.2949L415.212 58.3034C415.236 59.6903 415.248 61.0897 415.248 62.5C415.248 63.9103 415.236 65.3097 415.212 66.6966L415.712 66.7051C415.663 69.5589 415.566 72.3602 415.422 75.0965L414.923 75.0702C414.772 77.9352 414.571 80.7283 414.324 83.4348L414.822 83.4803C414.558 86.3667 414.241 89.1553 413.876 91.8283L413.381 91.7607C412.985 94.6594 412.532 97.4206 412.028 100.022L412.519 100.117C411.949 103.059 411.314 105.799 410.622 108.304L410.141 108.171C409.315 111.159 408.41 113.803 407.443 116.048L407.902 116.246C406.533 119.421 405.032 121.825 403.44 123.303L403.1 122.936C401.964 123.99 400.832 124.5 399.712 124.5C398.593 124.5 397.46 123.99 396.325 122.936L395.985 123.303C394.392 121.825 392.892 119.421 391.523 116.246L391.982 116.048C391.014 113.803 390.109 111.159 389.284 108.171L388.802 108.304C388.11 105.799 387.475 103.059 386.905 100.117L387.396 100.022C386.892 97.4206 386.44 94.6594 386.044 91.7607L385.548 91.8283C385.183 89.1553 384.866 86.3667 384.603 83.4803L385.101 83.4348C384.853 80.7283 384.652 77.9352 384.502 75.0702L384.003 75.0965C383.859 72.3602 383.761 69.5589 383.712 66.7051L384.212 66.6966C384.189 65.3097 384.177 63.9103 384.177 62.5C384.177 61.0897 384.189 59.6903 384.212 58.3034L383.712 58.2949C383.761 55.4411 383.859 52.6398 384.003 49.9035L384.502 49.9298C384.652 47.0648 384.853 44.2717 385.101 41.5652L384.603 41.5197C384.866 38.6333 385.183 35.8447 385.548 33.1717L386.044 33.2393C386.44 30.3406 386.892 27.5794 387.396 24.9783L386.905 24.8832C387.475 21.9407 388.11 19.2007 388.802 16.696L389.284 16.8292C390.109 13.841 391.014 11.1974 391.982 8.95209L391.523 8.75416C392.892 5.5786 394.392 3.17495 395.985 1.69727L396.325 2.0638C397.46 1.01034 398.593 0.5 399.712 0.5C400.832 0.5 401.964 1.01034 403.1 2.0638L403.44 1.69726C405.032 3.17495 406.533 5.57859 407.902 8.75416L407.443 8.95209C408.41 11.1974 409.315 13.841 410.141 16.8292L410.622 16.696C411.314 19.2007 411.949 21.9407 412.519 24.8832L412.028 24.9783C412.532 27.5794 412.985 30.3406 413.381 33.2393L413.876 33.1717C414.241 35.8447 414.558 38.6333 414.822 41.5197L414.324 41.5652C414.571 44.2717 414.772 47.0648 414.923 49.9298L415.422 49.9035Z" stroke="#BE0000" stroke-dasharray="8 8"/>
<path d="M443.416 62.3164C443.416 79.4351 438.581 94.9116 430.79 106.095C422.997 117.28 412.28 124.133 400.5 124.133C388.72 124.133 378.003 117.28 370.21 106.095C362.419 94.9116 357.584 79.4351 357.584 62.3164C357.584 45.1977 362.419 29.7212 370.21 18.5379C378.003 7.3528 388.72 0.5 400.5 0.5C412.28 0.5 422.997 7.3528 430.79 18.5379C438.581 29.7212 443.416 45.1977 443.416 62.3164Z" stroke="#BE0000"/>
<path d="M400.5 48.0697C417.731 48.0697 433.315 49.7536 444.577 52.4679C450.212 53.826 454.737 55.4356 457.841 57.2044C460.984 58.9954 462.5 60.8486 462.5 62.6335C462.5 64.4184 460.984 66.2716 457.841 68.0626C454.737 69.8314 450.212 71.441 444.577 72.7991C433.315 75.5134 417.731 77.1973 400.5 77.1973C383.269 77.1973 367.685 75.5134 356.423 72.7991C350.788 71.441 346.263 69.8314 343.159 68.0626C340.016 66.2716 338.5 64.4184 338.5 62.6335C338.5 60.8486 340.016 58.9954 343.159 57.2044C346.263 55.4356 350.788 53.826 356.423 52.4679C367.685 49.7536 383.269 48.0697 400.5 48.0697Z" stroke="#BE0000"/>
<path d="M400.198 33.4456C416.809 33.4456 431.83 35.1243 442.684 37.8298C448.115 39.1836 452.474 40.7876 455.464 42.5495C458.488 44.3315 459.953 46.1779 459.953 47.965C459.953 49.7521 458.488 51.5985 455.464 53.3805C452.474 55.1424 448.115 56.7464 442.684 58.1001C431.83 60.8057 416.809 62.4844 400.198 62.4844C383.588 62.4844 368.567 60.8057 357.713 58.1001C352.282 56.7464 347.923 55.1424 344.933 53.3805C341.909 51.5985 340.444 49.7521 340.444 47.965C340.444 46.1779 341.909 44.3315 344.933 42.5495C347.923 40.7876 352.282 39.1836 357.713 37.8298C368.567 35.1243 383.588 33.4456 400.198 33.4456Z" stroke="#BE0000"/>
<path d="M400.198 18.9109C415.195 18.9109 428.754 20.5891 438.548 23.292C443.449 24.6445 447.379 26.2458 450.072 28.0029C452.786 29.7736 454.122 31.6185 454.122 33.4303C454.122 35.2421 452.786 37.087 450.072 38.8578C447.379 40.6148 443.449 42.2162 438.548 43.5687C428.754 46.2716 415.195 47.9497 400.198 47.9497C385.201 47.9497 371.642 46.2716 361.848 43.5686C356.948 42.2162 353.018 40.6148 350.325 38.8578C347.611 37.087 346.275 35.2421 346.275 33.4303C346.275 31.6185 347.611 29.7736 350.325 28.0029C353.018 26.2458 356.948 24.6445 361.848 23.292C371.642 20.5891 385.201 18.9109 400.198 18.9109Z" stroke="#BE0000"/>
<path d="M400.198 8.25198C411.179 8.25198 421.107 9.11822 428.278 10.5133C431.867 11.2116 434.74 12.0376 436.704 12.9408C437.687 13.393 438.415 13.8524 438.89 14.304C439.365 14.7554 439.544 15.1558 439.544 15.5039C439.544 15.852 439.365 16.2524 438.89 16.7038C438.415 17.1554 437.687 17.6148 436.704 18.0671C434.74 18.9702 431.867 19.7962 428.278 20.4946C421.107 21.8896 411.179 22.7559 400.198 22.7559C389.217 22.7559 379.289 21.8896 372.119 20.4946C368.529 19.7962 365.656 18.9702 363.693 18.0671C362.71 17.6148 361.982 17.1554 361.507 16.7038C361.032 16.2524 360.853 15.852 360.853 15.5039C360.853 15.1558 361.032 14.7554 361.507 14.304C361.982 13.8524 362.71 13.393 363.693 12.9408C365.656 12.0376 368.529 11.2116 372.119 10.5133C379.289 9.11822 389.217 8.25198 400.198 8.25198Z" stroke="#BE0000"/>
<path d="M400.684 102.244C411.531 102.244 421.337 103.11 428.419 104.505C431.964 105.203 434.801 106.029 436.74 106.932C437.71 107.384 438.429 107.843 438.897 108.294C439.366 108.745 439.544 109.146 439.544 109.496C439.544 109.847 439.366 110.248 438.897 110.698C438.429 111.149 437.71 111.608 436.74 112.06C434.801 112.963 431.964 113.789 428.419 114.487C421.337 115.882 411.531 116.748 400.684 116.748C389.837 116.748 380.031 115.882 372.949 114.487C369.404 113.789 366.567 112.963 364.628 112.06C363.658 111.608 362.939 111.149 362.471 110.698C362.002 110.247 361.824 109.847 361.824 109.496C361.824 109.146 362.002 108.745 362.471 108.294C362.939 107.843 363.658 107.384 364.628 106.932C366.567 106.029 369.404 105.203 372.949 104.505C380.031 103.11 389.837 102.244 400.684 102.244Z" stroke="#BE0000"/>
<path d="M400.684 77.0504C415.547 77.0504 428.984 78.7284 438.69 81.4311C443.546 82.7834 447.44 84.3846 450.108 86.1411C452.796 87.9109 454.122 89.7558 454.122 91.5697C454.122 93.3836 452.796 95.2285 450.108 96.9983C447.44 98.7549 443.546 100.356 438.69 101.708C428.984 104.411 415.547 106.089 400.684 106.089C385.822 106.089 372.385 104.411 362.679 101.708C357.822 100.356 353.928 98.7549 351.26 96.9983C348.572 95.2285 347.247 93.3836 347.247 91.5697C347.247 89.7558 348.572 87.9109 351.26 86.1411C353.928 84.3846 357.822 82.7834 362.679 81.4311C372.385 78.7284 385.822 77.0504 400.684 77.0504Z" stroke="#BE0000"/>
<path d="M400.198 62.5154C416.809 62.5154 431.83 64.1941 442.684 66.8997C448.115 68.2534 452.474 69.8574 455.464 71.6194C458.488 73.4013 459.953 75.2477 459.953 77.0348C459.953 78.8219 458.488 80.6684 455.464 82.4503C452.474 84.2122 448.115 85.8162 442.684 87.17C431.83 89.8755 416.809 91.5542 400.198 91.5542C383.588 91.5542 368.567 89.8755 357.713 87.17C352.282 85.8162 347.923 84.2122 344.933 82.4503C341.909 80.6684 340.444 78.8219 340.444 77.0348C340.444 75.2477 341.909 73.4013 344.933 71.6194C347.923 69.8574 352.282 68.2534 357.713 66.8997C368.567 64.1941 383.588 62.5154 400.198 62.5154Z" stroke="#BE0000"/>
</svg>
