<svg width="64" height="51" viewBox="0 0 64 51" fill="none" xmlns="http://www.w3.org/2000/svg">
<g id="Group 34">
<g id="Group 32">
<rect id="Rectangle 45" x="4" y="27.5" width="4.58333" height="4.58333" transform="rotate(-90 4 27.5)" fill="#BE0000"/>
<rect id="Rectangle 46" x="8.5835" y="22.9167" width="4.58333" height="4.58333" transform="rotate(-90 8.5835 22.9167)" fill="#BE0000"/>
<rect id="Rectangle 67" x="26.9165" y="25.2083" width="4.58333" height="4.58333" transform="rotate(-90 26.9165 25.2083)" fill="#BE0000"/>
<rect id="Rectangle 69" x="26.9165" y="29.7917" width="4.58333" height="4.58333" transform="rotate(-90 26.9165 29.7917)" fill="#BE0000"/>
<rect id="Rectangle 68" x="31.5" y="25.2083" width="4.58333" height="4.58333" transform="rotate(-90 31.5 25.2083)" fill="#BE0000"/>
<rect id="Rectangle 70" x="31.5" y="29.7917" width="4.58333" height="4.58333" transform="rotate(-90 31.5 29.7917)" fill="#BE0000"/>
<rect id="Rectangle 66" x="8.5835" y="32.0833" width="4.58333" height="4.58333" transform="rotate(-90 8.5835 32.0833)" fill="#BE0000"/>
<rect id="Rectangle 47" x="13.1665" y="18.3333" width="4.58333" height="4.58333" transform="rotate(-90 13.1665 18.3333)" fill="#BE0000"/>
<rect id="Rectangle 64" x="13.1665" y="36.6667" width="4.58333" height="4.58333" transform="rotate(-90 13.1665 36.6667)" fill="#BE0000"/>
<rect id="Rectangle 48" x="17.75" y="18.3333" width="4.58333" height="4.58333" transform="rotate(-90 17.75 18.3333)" fill="#BE0000"/>
<rect id="Rectangle 65" x="17.75" y="36.6667" width="4.58333" height="4.58333" transform="rotate(-90 17.75 36.6667)" fill="#BE0000"/>
<rect id="Rectangle 49" x="22.3335" y="13.75" width="4.58333" height="4.58333" transform="rotate(-90 22.3335 13.75)" fill="#BE0000"/>
<rect id="Rectangle 60" x="22.3335" y="41.25" width="4.58333" height="4.58333" transform="rotate(-90 22.3335 41.25)" fill="#BE0000"/>
<rect id="Rectangle 50" x="26.9165" y="13.75" width="4.58333" height="4.58333" transform="rotate(-90 26.9165 13.75)" fill="#BE0000"/>
<rect id="Rectangle 61" x="26.9165" y="41.25" width="4.58333" height="4.58333" transform="rotate(-90 26.9165 41.25)" fill="#BE0000"/>
<rect id="Rectangle 51" x="31.5" y="13.75" width="4.58333" height="4.58333" transform="rotate(-90 31.5 13.75)" fill="#BE0000"/>
<rect id="Rectangle 62" x="31.5" y="41.25" width="4.58333" height="4.58333" transform="rotate(-90 31.5 41.25)" fill="#BE0000"/>
<rect id="Rectangle 52" x="36.0835" y="13.75" width="4.58333" height="4.58333" transform="rotate(-90 36.0835 13.75)" fill="#BE0000"/>
<rect id="Rectangle 63" x="36.0835" y="41.25" width="4.58333" height="4.58333" transform="rotate(-90 36.0835 41.25)" fill="#BE0000"/>
<rect id="Rectangle 53" x="40.6665" y="18.3333" width="4.58333" height="4.58333" transform="rotate(-90 40.6665 18.3333)" fill="#BE0000"/>
<rect id="Rectangle 58" x="40.6665" y="36.6667" width="4.58333" height="4.58333" transform="rotate(-90 40.6665 36.6667)" fill="#BE0000"/>
<rect id="Rectangle 54" x="45.25" y="18.3333" width="4.58333" height="4.58333" transform="rotate(-90 45.25 18.3333)" fill="#BE0000"/>
<rect id="Rectangle 71" x="29.2085" y="9.16669" width="4.58333" height="4.58333" transform="rotate(-90 29.2085 9.16669)" fill="#BE0000"/>
<rect id="Rectangle 73" x="29.2085" y="50.4167" width="4.58333" height="4.58333" transform="rotate(-90 29.2085 50.4167)" fill="#BE0000"/>
<rect id="Rectangle 72" x="29.2085" y="4.58331" width="4.58333" height="4.58333" transform="rotate(-90 29.2085 4.58331)" fill="#BE0000"/>
<rect id="Rectangle 75" y="27.5833" width="4.58333" height="4.58333" transform="rotate(-90 0 27.5833)" fill="#BE0000"/>
<rect id="Rectangle 76" x="59" y="27.5833" width="4.58333" height="4.58333" transform="rotate(-90 59 27.5833)" fill="#BE0000"/>
<rect id="Rectangle 74" x="29.2085" y="45.8333" width="4.58333" height="4.58333" transform="rotate(-90 29.2085 45.8333)" fill="#BE0000"/>
<rect id="Rectangle 59" x="45.25" y="36.6667" width="4.58333" height="4.58333" transform="rotate(-90 45.25 36.6667)" fill="#BE0000"/>
<rect id="Rectangle 55" x="49.8335" y="22.9167" width="4.58333" height="4.58333" transform="rotate(-90 49.8335 22.9167)" fill="#BE0000"/>
<rect id="Rectangle 57" x="49.8335" y="32.0833" width="4.58333" height="4.58333" transform="rotate(-90 49.8335 32.0833)" fill="#BE0000"/>
<rect id="Rectangle 56" x="54.4165" y="27.5" width="4.58333" height="4.58333" transform="rotate(-90 54.4165 27.5)" fill="#BE0000"/>
</g>
</g>
</svg>
