<svg width="50" height="50" viewBox="0 0 50 50" fill="none" xmlns="http://www.w3.org/2000/svg">
<rect x="30" y="20" width="10" height="10" transform="rotate(-90 30 20)" fill="#BE0000"/>
<rect x="10" y="40" width="10" height="10" transform="rotate(-90 10 40)" fill="#BE0000"/>
<rect x="20" y="10" width="10" height="10" transform="rotate(-90 20 10)" fill="#BE0000"/>
<rect x="40" y="10" width="10" height="10" transform="rotate(-90 40 10)" fill="#BE0000"/>
<rect y="10" width="10" height="10" transform="rotate(-90 0 10)" fill="#BE0000"/>
<rect y="30" width="10" height="10" transform="rotate(-90 0 30)" fill="#BE0000"/>
<rect x="40" y="30" width="10" height="10" transform="rotate(-90 40 30)" fill="#BE0000"/>
<rect x="20" y="30" width="10" height="10" transform="rotate(-90 20 30)" fill="#BE0000"/>
<rect x="10" y="20" width="10" height="10" transform="rotate(-90 10 20)" fill="#BE0000"/>
<rect x="30" y="40" width="10" height="10" transform="rotate(-90 30 40)" fill="#BE0000"/>
<rect x="20" y="50" width="10" height="10" transform="rotate(-90 20 50)" fill="#BE0000"/>
<rect y="50" width="10" height="10" transform="rotate(-90 0 50)" fill="#BE0000"/>
<rect x="40" y="50" width="10" height="10" transform="rotate(-90 40 50)" fill="#BE0000"/>
</svg>
