<svg width="452" height="181" viewBox="0 0 452 181" fill="none" xmlns="http://www.w3.org/2000/svg">
<rect x="0.5" y="0.5" width="451" height="180" rx="19.5" stroke="white"/>
<path d="M110.638 88.5C110.638 102.933 107.574 115.976 102.644 125.391C97.7009 134.83 90.9597 140.5 83.6476 140.5C76.3355 140.5 69.5943 134.83 64.6516 125.391C59.7212 115.976 56.6567 102.933 56.6567 88.5C56.6567 74.0666 59.7212 61.0244 64.6516 51.6088C69.5943 42.1695 76.3355 36.5 83.6476 36.5C90.9597 36.5 97.7009 42.1695 102.644 51.6088C107.574 61.0244 110.638 74.0666 110.638 88.5Z" stroke="#BE0000"/>
<path d="M77.4032 88.5C77.4032 102.974 76.1878 116.063 74.2289 125.522C73.2486 130.255 72.0874 134.052 70.8133 136.654C70.1757 137.956 69.5224 138.933 68.8699 139.578C68.219 140.221 67.6052 140.5 67.03 140.5C66.4548 140.5 65.841 140.221 65.1901 139.578C64.5376 138.933 63.8842 137.956 63.2467 136.654C61.9726 134.052 60.8114 130.255 59.8311 125.522C57.8721 116.063 56.6567 102.974 56.6567 88.5C56.6567 74.026 57.8721 60.9366 59.8311 51.4783C60.8114 46.745 61.9726 42.9476 63.2467 40.3456C63.8842 39.0436 64.5376 38.0669 65.1901 37.4223C65.841 36.7792 66.4548 36.5 67.03 36.5C67.6052 36.5 68.219 36.7792 68.8699 37.4223C69.5224 38.0669 70.1757 39.0436 70.8133 40.3456C72.0874 42.9476 73.2486 46.745 74.2289 51.4783C76.1878 60.9366 77.4032 74.026 77.4032 88.5Z" stroke="#BE0000"/>
<path d="M44.7577 88.5C44.7577 102.985 45.4232 116.09 46.4971 125.567C47.0344 130.308 47.6721 134.124 48.3744 136.745C48.7265 138.059 49.0876 139.045 49.4456 139.691C49.6247 140.015 49.7899 140.229 49.9326 140.357C50.0724 140.482 50.1616 140.5 50.2072 140.5C50.2529 140.5 50.3421 140.482 50.4818 140.357C50.6245 140.229 50.7897 140.015 50.9689 139.691C51.3268 139.045 51.6879 138.059 52.0401 136.745C52.7423 134.124 53.38 130.308 53.9173 125.567C54.9913 116.09 55.6567 102.985 55.6567 88.5C55.6567 74.0152 54.9913 60.9099 53.9173 51.4332C53.38 46.6915 52.7423 42.8761 52.0401 40.2551C51.6879 38.9407 51.3268 37.9552 50.9689 37.3088C50.7897 36.9853 50.6245 36.7713 50.4818 36.6434C50.3421 36.5182 50.2529 36.5 50.2072 36.5C50.1616 36.5 50.0724 36.5182 49.9326 36.6434C49.7899 36.7713 49.6247 36.9853 49.4456 37.3088C49.0876 37.9552 48.7265 38.9407 48.3744 40.2551C47.6721 42.8761 47.0344 46.6915 46.4971 51.4332C45.4232 60.9099 44.7577 74.0152 44.7577 88.5Z" stroke="#BE0000"/>
<path d="M34.4999 88.5C34.4999 102.974 35.7382 116.062 37.7339 125.52C38.7327 130.253 39.9156 134.05 41.2135 136.651C41.8629 137.953 42.5286 138.929 43.1937 139.574C43.857 140.218 44.4856 140.5 45.0783 140.5C45.6711 140.5 46.2997 140.218 46.9629 139.574C47.6281 138.929 48.2938 137.953 48.9431 136.651C50.241 134.05 51.424 130.253 52.4227 125.52C54.4184 116.062 55.6567 102.974 55.6567 88.5C55.6567 74.0265 54.4184 60.9377 52.4227 51.4801C51.424 46.7472 50.241 42.9504 48.9431 40.3489C48.2938 39.0473 47.6281 38.0706 46.9629 37.4256C46.2997 36.7824 45.6711 36.5 45.0783 36.5C44.4856 36.5 43.857 36.7824 43.1937 37.4256C42.5286 38.0706 41.8629 39.0473 41.2135 40.3489C39.9156 42.9504 38.7327 46.7472 37.7339 51.4801C35.7382 60.9377 34.4999 74.0265 34.4999 88.5Z" stroke="#BE0000"/>
<path d="M143.053 88.5C143.053 117.309 123.631 140.5 99.8549 140.5C76.0792 140.5 56.6567 117.309 56.6567 88.5C56.6567 59.6914 76.0792 36.5 99.8549 36.5C123.631 36.5 143.053 59.6914 143.053 88.5Z" stroke="#BE0000"/>
<path d="M189.008 88.5C189.008 117.114 159.498 140.5 122.832 140.5C86.1666 140.5 56.6567 117.114 56.6567 88.5C56.6567 59.886 86.1666 36.5 122.832 36.5C159.498 36.5 189.008 59.886 189.008 88.5Z" stroke="#BE0000"/>
<path d="M251.786 88.5C251.786 102.724 241.008 115.716 223.327 125.182C205.667 134.637 181.235 140.5 154.221 140.5C127.207 140.5 102.775 134.637 85.1151 125.182C67.4339 115.716 56.6567 102.724 56.6567 88.5C56.6567 74.2761 67.4339 61.2836 85.1151 51.8177C102.775 42.3631 127.207 36.5 154.221 36.5C181.235 36.5 205.667 42.3631 223.327 51.8177C241.008 61.2836 251.786 74.2761 251.786 88.5Z" stroke="#BE0000"/>
<path d="M297.74 88.5C297.74 95.5818 294.434 102.369 288.37 108.586C282.305 114.806 273.504 120.43 262.589 125.164C240.761 134.632 210.572 140.5 177.199 140.5C143.826 140.5 113.636 134.632 91.808 125.164C80.8933 120.43 72.0922 114.806 66.0268 108.586C59.9636 102.369 56.6567 95.5818 56.6567 88.5C56.6567 81.4182 59.9636 74.6312 66.0268 68.4137C72.0922 62.1939 80.8933 56.5697 91.808 51.8356C113.636 42.3681 143.826 36.5 177.199 36.5C210.572 36.5 240.761 42.3681 262.589 51.8356C273.504 56.5697 282.305 62.1939 288.37 68.4137C294.434 74.6312 297.74 81.4182 297.74 88.5Z" stroke="#BE0000"/>
<path d="M356.825 88.5C356.825 95.5395 352.734 102.317 345.174 108.55C337.616 114.779 326.65 120.411 313.056 125.151C285.871 134.629 248.283 140.5 206.741 140.5C165.199 140.5 127.611 134.629 100.426 125.151C86.8318 120.411 75.8659 114.779 68.3084 108.55C60.7476 102.317 56.6567 95.5395 56.6567 88.5C56.6567 81.4605 60.7476 74.6827 68.3084 68.4505C75.8659 62.221 86.8318 56.5887 100.426 51.849C127.611 42.3713 165.199 36.5 206.741 36.5C248.283 36.5 285.871 42.3713 313.056 51.849C326.65 56.5887 337.616 62.221 345.174 68.4505C352.734 74.6827 356.825 81.4605 356.825 88.5Z" stroke="#BE0000"/>
<path d="M415.5 88.5C415.5 95.4999 410.635 102.275 401.577 108.524C392.534 114.762 379.417 120.4 363.162 125.143C330.66 134.627 285.729 140.5 236.078 140.5C186.428 140.5 141.497 134.627 108.995 125.143C92.7401 120.4 79.6225 114.762 70.5798 108.524C61.5217 102.275 56.6567 95.4999 56.6567 88.5C56.6567 81.5001 61.5217 74.7252 70.5798 68.4762C79.6225 62.2379 92.7401 56.5998 108.995 51.8569C141.497 42.3729 186.428 36.5 236.078 36.5C285.729 36.5 330.66 42.3729 363.162 51.8569C379.417 56.5998 392.534 62.2379 401.577 68.4762C410.635 74.7252 415.5 81.5001 415.5 88.5Z" stroke="#BE0000"/>
</svg>
